<?xml version="1.0" encoding="utf-8"?><!-- Uploaded to: SVG Repo, www.svgrepo.com, Generator: SVG Repo Mixer Tools -->
<svg width="800px" height="800px" viewBox="0 0 24 24" fill="none" xmlns="http://www.w3.org/2000/svg">
<path d="M9.29289 3.29289C9 3.58579 9 4.05719 9 5H15C15 4.05719 15 3.58579 14.7071 3.29289C14.4142 3 13.9428 3 13 3H11C10.0572 3 9.58579 3 9.29289 3.29289Z" fill="#000000"/>
<path d="M11.5 14H10.618C9.89286 14 9.53026 14 9.38371 13.7629C9.23715 13.5257 9.39931 13.2014 9.72362 12.5528L11.0528 9.89443C11.4275 9.14498 11.6149 8.77025 11.8075 8.81571C12 8.86117 12 9.28012 12 10.118V11.5C12 11.7357 12 11.8536 12.0732 11.9268C12.1465 12 12.2643 12 12.5 12H13.382C14.1072 12 14.4698 12 14.6163 12.2371C14.7629 12.4743 14.6007 12.7986 14.2764 13.4472L12.9472 16.1056C12.5725 16.855 12.3851 17.2298 12.1926 17.1843C12 17.1388 12 16.7199 12 15.882V14.5C12 14.2643 12 14.1464 11.9268 14.0732C11.8536 14 11.7357 14 11.5 14Z" fill="#000000"/>
<path d="M9.38754 15.75L11 15.75L11 15.935C10.9999 16.3076 10.9999 16.6696 11.0303 16.9415C11.0458 17.0801 11.0777 17.2912 11.173 17.498C11.2806 17.7313 11.5184 18.0526 11.9628 18.1575C12.4072 18.2624 12.7637 18.0814 12.9642 17.9208C13.1419 17.7785 13.2649 17.6039 13.3407 17.4869C13.4895 17.2574 13.6514 16.9335 13.8179 16.6002L14.243 15.75L14.6125 15.75C14.6958 15.75 14.7813 15.75 14.8528 15.7596C14.935 15.7706 15.0347 15.7983 15.1182 15.8818C15.2017 15.9653 15.2294 16.0651 15.2405 16.1472C15.2501 16.2187 15.25 16.3042 15.25 16.3875L15.25 17.4178C15.25 17.7798 15.25 18.0766 15.2185 18.3111C15.1855 18.5567 15.1138 18.7711 14.9425 18.9425C14.7711 19.1138 14.5567 19.1855 14.3111 19.2185C14.0766 19.25 13.7798 19.25 13.4178 19.25H10.5822C10.2202 19.25 9.92342 19.25 9.68888 19.2185C9.4433 19.1855 9.22889 19.1138 9.05754 18.9425C8.88619 18.7711 8.81454 18.5567 8.78152 18.3111C8.74999 18.0766 8.75 17.7798 8.75 17.4178L8.75 16.3875C8.74998 16.3042 8.74995 16.2187 8.75956 16.1472C8.77061 16.0651 8.79833 15.9653 8.88181 15.8818C8.96529 15.7983 9.06505 15.7706 9.14724 15.7596C9.21866 15.75 9.30421 15.75 9.38754 15.75Z" fill="#000000"/>
<path fill-rule="evenodd" clip-rule="evenodd" d="M9.93111 5.49999C9.52088 5.49983 9.0773 5.49965 8.70286 5.54999C8.26422 5.60897 7.70384 5.76064 7.23224 6.23224C6.76064 6.70384 6.60897 7.26422 6.54999 7.70286C6.49965 8.0773 6.49983 8.52088 6.49999 8.93111V18.0689C6.49983 18.4791 6.49965 18.9227 6.54999 19.2971C6.60897 19.7358 6.76064 20.2962 7.23224 20.7678C7.70384 21.2394 8.26422 21.391 8.70286 21.45C9.0773 21.5004 9.52089 21.5002 9.93112 21.5H14.0689C14.4791 21.5002 14.9227 21.5004 15.2971 21.45C15.7358 21.391 16.2962 21.2394 16.7678 20.7678C17.2394 20.2962 17.391 19.7358 17.45 19.2971C17.5004 18.9227 17.5002 18.4791 17.5 18.0689V8.93112C17.5002 8.52089 17.5004 8.0773 17.45 7.70286C17.391 7.26422 17.2394 6.70384 16.7678 6.23224C16.2962 5.76064 15.7358 5.60897 15.2971 5.54999C14.9227 5.49965 14.4791 5.49983 14.0689 5.49999H9.93111ZM8.00001 9.00001C8.00001 8.0572 8.00001 7.58579 8.2929 7.2929C8.58579 7.00001 9.0572 7.00001 10 7.00001H14C14.9428 7.00001 15.4142 7.00001 15.7071 7.2929C16 7.58579 16 8.0572 16 9.00001V18C16 18.9428 16 19.4142 15.7071 19.7071C15.4142 20 14.9428 20 14 20H10C9.0572 20 8.58579 20 8.2929 19.7071C8.00001 19.4142 8.00001 18.9428 8.00001 18V9.00001Z" fill="#000000"/>
</svg>