<?xml version="1.0" ?>
<!-- Uploaded to: SVG Repo, www.svgrepo.com, Generator: SVG Repo Mixer Tools -->
<svg fill="#000000" width="800px" height="800px" viewBox="0 0 108 108" id="Layeri" xmlns="http://www.w3.org/2000/svg">
<title/>
<g id="Line">
<path d="M101.46,59.24A8.25,8.25,0,0,0,106,51.88V37a8,8,0,0,0-8-8H88v4H98a4,4,0,0,1,4,4.08V52.31A4.11,4.11,0,0,1,99.75,56a14.93,14.93,0,0,1-6.42,2c-2.77,0-5.74-1.63-8.88-3.36-3.44-1.9-7-3.86-10.78-3.86s-7.34,2-10.79,3.86C59.74,56.39,56.77,58,54,58s-5.74-1.63-8.88-3.36c-3.45-1.9-7-3.86-10.79-3.86s-7.34,2-10.78,3.86C20.41,56.39,17.44,58,14.67,58a14.93,14.93,0,0,1-6.42-2A4.11,4.11,0,0,1,6,52.31V37a4,4,0,0,1,4-4H76V29H61V16H47V29H10a8.07,8.07,0,0,0-8,8.11V52.19a8.25,8.25,0,0,0,4.56,7.37l.44.22V86.33a8.1,8.1,0,0,0-5,7.51v5.05A8.07,8.07,0,0,0,10,107H98a8.09,8.09,0,0,0,8-8.16V93.75a8.16,8.16,0,0,0-5-7.56V59.47ZM51,20h6v9H51Zm51,74v5a4,4,0,0,1-4,4H10a4,4,0,0,1-4-4V94a4,4,0,0,1,4-4H28V86H11V61.52a13.26,13.26,0,0,0,3.67.56c3.78,0,7.34-2,10.78-3.86,3.14-1.73,6.11-3.36,8.88-3.36s5.74,1.63,8.88,3.36c3.45,1.9,7,3.86,10.79,3.86s7.34-2,10.79-3.86c3.14-1.73,6.11-3.36,8.88-3.36s5.74,1.63,8.88,3.36c3.44,1.9,7,3.86,10.78,3.86A13.26,13.26,0,0,0,97,61.52V86H40v4H98A4,4,0,0,1,102,94Z"/>
<path d="M52,10.39,54,3l2,7.39A2.12,2.12,0,0,1,54.55,13,2.07,2.07,0,0,1,52,11.52,2.18,2.18,0,0,1,52,10.39Z"/>
<ellipse cx="17.5" cy="38.18" rx="1.5" ry="1.53"/>
<ellipse cx="51" cy="45.82" rx="3" ry="3.06"/>
<ellipse cx="78.5" cy="41.24" rx="1.5" ry="1.53"/>
<ellipse cx="92.5" cy="49.39" rx="2.5" ry="2.55"/>
<ellipse cx="97" cy="36.65" rx="1" ry="1.02"/>
<ellipse cx="12.5" cy="49.39" rx="2.5" ry="2.55"/>
<ellipse cx="32" cy="40.73" rx="1" ry="1.02"/>
<ellipse cx="61.5" cy="39.2" rx="1.5" ry="1.53"/>
<rect height="4" rx="2" ry="2" width="4" x="32" y="86"/>
<rect height="4" rx="2" ry="2" width="4" x="80" y="29"/>
</g>
</svg>