<?xml version="1.0" encoding="iso-8859-1"?>
<!-- Uploaded to: SVG Repo, www.svgrepo.com, Generator: SVG Repo Mixer Tools -->
<!DOCTYPE svg PUBLIC "-//W3C//DTD SVG 1.1//EN" "http://www.w3.org/Graphics/SVG/1.1/DTD/svg11.dtd">
<svg fill="#000000" version="1.1" id="Capa_1" xmlns="http://www.w3.org/2000/svg" xmlns:xlink="http://www.w3.org/1999/xlink" 
	 width="800px" height="800px" viewBox="0 0 181.194 181.194"
	 xml:space="preserve">
<g>
	<g>
		<path d="M129.082,90.751l-0.26-0.156l-0.272-0.133c-0.473-0.243-12.755-6.877-12.755-26.427c0-6.942,0.531-11.425,1.135-14.26
			c2.777-1.628,4.811-3.667,5.78-6.191l0.39-1.203l0.095-0.535c0.106-0.567,0.172-1.132,0.172-1.641
			c0-6.312-5.828-10.276-13.643-12.51c-0.856,0.248-1.648,0.496-2.701,0.703v4.8c6.277,1.64,10.38,4.164,10.38,7.007
			c0,0.564-0.201,1.097-0.484,1.628l-0.592,0.745l-0.65,0.709l-1.276,0.955l-0.509,0.311c-0.614,0.357-1.265,0.712-2.009,1.04
			c-4.9,2.143-12.566,3.553-21.273,3.553c-8.715,0-16.384-1.404-21.281-3.553c-0.745-0.334-1.404-0.683-2.016-1.04l-0.502-0.311
			l-1.283-0.955l-0.647-0.709l-0.594-0.745c-0.29-0.532-0.491-1.064-0.491-1.628c0-2.843,4.111-5.367,10.382-7.007v-4.8
			c-1.041-0.207-1.847-0.455-2.695-0.703c-7.82,2.24-13.642,6.197-13.642,12.51c0,0.515,0.062,1.079,0.171,1.641l0.095,0.535
			l0.387,1.203c0.976,2.524,3.009,4.569,5.781,6.191c0.605,2.846,1.138,7.324,1.138,14.26c0,19.544-12.377,26.179-12.903,26.445
			l-0.236,0.115l-0.266,0.156c-16.869,10.596-26.941,27.701-26.941,45.758c0,28.401,23.885,44.686,65.532,44.686
			c41.647,0,65.533-16.284,65.533-44.686C156.13,118.487,146.01,101.388,129.082,90.751z M33.05,123.523
			c1.208-3.901,2.958-7.613,5.169-11.089C36.008,115.922,34.27,119.634,33.05,123.523z M38.225,112.435
			c4.17-6.549,9.945-12.235,16.952-16.633c0,0,16.184-7.944,16.184-31.773c0-4.731-0.233-8.497-0.615-11.529
			c5.943,1.815,13.146,2.589,19.857,2.589c6.703,0,13.902-0.774,19.849-2.589c-0.379,3.032-0.615,6.803-0.615,11.529
			c0,23.835,16.078,31.773,16.078,31.773c7.01,4.397,12.803,10.084,16.999,16.633H38.225z M142.913,112.435
			c2.223,3.476,3.995,7.188,5.213,11.089C146.885,119.634,145.136,115.91,142.913,112.435z"/>
		<path d="M77.147,25.88v15.347c0,1.484,6.017,2.695,13.45,2.695c7.43,0,13.447-1.211,13.447-2.695V25.88
			c5.367-0.819,8.89-2.101,8.89-3.541V4.466C112.934,2.01,102.933,0,90.597,0C78.255,0,68.251,2.01,68.251,4.466V22.34
			C68.257,23.779,71.78,25.062,77.147,25.88z"/>
	</g>
</g>
</svg>