<?xml version="1.0" encoding="utf-8"?>

<!DOCTYPE svg PUBLIC "-//W3C//DTD SVG 1.1//EN" "http://www.w3.org/Graphics/SVG/1.1/DTD/svg11.dtd">
<!-- Uploaded to: SVG Repo, www.svgrepo.com, Generator: SVG Repo Mixer Tools -->
<svg height="800px" width="800px" version="1.1" id="_x32_" xmlns="http://www.w3.org/2000/svg" xmlns:xlink="http://www.w3.org/1999/xlink" 
	 viewBox="0 0 512 512"  xml:space="preserve">
<style type="text/css">
	.st0{fill:#000000;}
</style>
<g>
	<path class="st0" d="M474.01,89.302L273.877,3.673C268.196,1.235,262.191,0,256,0c-6.19,0-12.195,1.235-17.876,3.673L37.991,89.302
		c-16.74,7.161-27.564,23.558-27.564,41.777v249.853c0,18.21,10.824,34.606,27.564,41.777l200.144,85.628
		C243.815,510.766,249.819,512,256,512c6.182,0,12.186-1.234,17.877-3.663l200.133-85.628c16.739-7.171,27.563-23.577,27.563-41.777
		V131.078C501.573,112.869,490.749,96.462,474.01,89.302z M41.027,380.932V131.078c0-1.372,0.196-2.733,0.578-4.065l205.746,88.029
		V479.01L50.039,394.587C44.564,392.246,41.027,386.878,41.027,380.932z M461.962,394.587L264.659,479.01V215.042l205.736-88.029
		c0.382,1.332,0.579,2.693,0.579,4.065v249.853C470.974,386.878,467.437,392.246,461.962,394.587z M256,30.6
		c2.018,0,3.987,0.401,5.828,1.195l193.56,82.818L256,199.918L56.611,114.613l193.552-82.818C252.014,31.001,253.983,30.6,256,30.6z
		"/>
	<path class="st0" d="M94.822,214.052c2.086-3.585,1.146-8.532-2.096-11.048c-3.242-2.518-7.572-1.656-9.667,1.929
		c-2.087,3.595-1.146,8.542,2.095,11.049C88.397,218.5,92.725,217.637,94.822,214.052z"/>
	<path class="st0" d="M89.924,336.57c2.086-3.586,1.156-8.532-2.086-11.049c-3.242-2.518-7.572-1.646-9.667,1.94
		c-2.087,3.585-1.146,8.541,2.096,11.048C83.499,341.026,87.838,340.155,89.924,336.57z"/>
	<path class="st0" d="M127.488,294.186c2.087-3.595,1.157-8.542-2.086-11.059c-3.252-2.517-7.581-1.645-9.667,1.94
		c-2.086,3.585-1.157,8.532,2.086,11.05C121.073,298.633,125.402,297.761,127.488,294.186z"/>
	<path class="st0" d="M158.509,398.308c2.086-3.585,1.147-8.531-2.096-11.048c-3.242-2.518-7.572-1.656-9.658,1.93
		c-2.096,3.595-1.156,8.541,2.086,11.048C152.084,402.755,156.413,401.894,158.509,398.308z"/>
	<path class="st0" d="M194.252,346.208c-2.096,3.595-1.156,8.542,2.086,11.058c3.242,2.518,7.582,1.656,9.668-1.929
		c2.086-3.595,1.145-8.542-2.086-11.049C200.667,341.761,196.339,342.633,194.252,346.208z"/>
	<path class="st0" d="M225.841,429.496c2.076-3.595,1.146-8.541-2.096-11.048c-3.242-2.518-7.572-1.656-9.667,1.929
		c-2.087,3.586-1.146,8.532,2.095,11.049C219.416,433.953,223.745,433.08,225.841,429.496z"/>
	<path class="st0" d="M202.921,263.459c2.076-3.585,1.145-8.532-2.096-11.049c-3.243-2.516-7.572-1.645-9.668,1.94
		c-2.086,3.585-1.146,8.542,2.096,11.049C196.495,267.915,200.825,267.044,202.921,263.459z"/>
	<path class="st0" d="M439.287,349.617c-2.086,3.585-1.146,8.531,2.086,11.048c3.252,2.518,7.581,1.646,9.668-1.939
		c2.095-3.586,1.156-8.542-2.087-11.049C445.712,345.16,441.373,346.032,439.287,349.617z"/>
	<path class="st0" d="M377.254,316.382c-2.086,3.585-1.145,8.54,2.086,11.048c3.252,2.518,7.582,1.656,9.668-1.939
		c2.096-3.585,1.155-8.532-2.086-11.039C383.679,311.925,379.34,312.798,377.254,316.382z"/>
	<path class="st0" d="M446.613,265.673c2.087-3.585,1.146-8.532-2.086-11.04c-3.242-2.517-7.581-1.655-9.667,1.93
		s-1.146,8.542,2.086,11.049C440.187,270.129,444.527,269.268,446.613,265.673z"/>
	<path class="st0" d="M351.346,265.673c2.096-3.585,1.156-8.532-2.086-11.04c-3.242-2.517-7.582-1.655-9.668,1.93
		c-2.086,3.585-1.146,8.542,2.086,11.049C344.931,270.129,349.26,269.268,351.346,265.673z"/>
	<path class="st0" d="M249.986,82.817c3.586,2.087,8.542,1.146,11.049-2.095c2.518-3.243,1.655-7.572-1.94-9.658
		c-3.585-2.096-8.531-1.156-11.038,2.086C245.529,76.392,246.401,80.722,249.986,82.817z"/>
	<path class="st0" d="M159.529,124.408c-2.518,3.242-1.656,7.582,1.93,9.668c3.595,2.086,8.541,1.146,11.048-2.086
		c2.518-3.252,1.656-7.582-1.93-9.668C166.992,120.225,162.046,121.166,159.529,124.408z"/>
	<path class="st0" d="M350.072,127.326c3.595,2.087,8.532,1.156,11.049-2.086c2.518-3.252,1.656-7.581-1.93-9.667
		c-3.595-2.096-8.54-1.156-11.048,2.086C345.626,120.911,346.487,125.24,350.072,127.326z"/>
	<path class="st0" d="M252.738,169.358c-2.527,3.242-1.655,7.572,1.93,9.667c3.586,2.086,8.542,1.146,11.049-2.095
		c2.518-3.243,1.655-7.572-1.94-9.658C260.193,165.175,255.246,166.115,252.738,169.358z"/>
	<path class="st0" d="M228.055,130.412c3.585,2.086,8.532,1.146,11.049-2.096c2.516-3.243,1.645-7.572-1.94-9.668
		c-3.585-2.086-8.54-1.145-11.048,2.096C223.599,123.986,224.47,128.316,228.055,130.412z"/>
	<path class="st0" d="M157.031,100.84c3.585,2.096,8.541,1.146,11.048-2.086c2.518-3.242,1.656-7.581-1.93-9.668
		c-3.595-2.095-8.54-1.155-11.048,2.088C152.584,94.415,153.445,98.754,157.031,100.84z"/>
	<path class="st0" d="M399.312,189.8c-2.086,3.585-1.145,8.53,2.086,11.048c3.253,2.518,7.582,1.656,9.668-1.93
		c2.096-3.595,1.156-8.531-2.086-11.048C405.739,185.353,401.399,186.214,399.312,189.8z"/>
	<path class="st0" d="M313.007,307.518c-2.095,3.585-1.155,8.541,2.086,11.048c3.253,2.517,7.582,1.656,9.668-1.929
		c2.086-3.595,1.156-8.542-2.086-11.05C319.434,303.07,315.094,303.933,313.007,307.518z"/>
	<path class="st0" d="M294.642,376.358c-2.086,3.585-1.156,8.532,2.086,11.048c3.252,2.518,7.581,1.646,9.668-1.939
		c2.096-3.586,1.156-8.542-2.087-11.049C301.068,371.9,296.729,372.772,294.642,376.358z"/>
	<path class="st0" d="M348.457,398.357c-2.086,3.585-1.146,8.532,2.086,11.05c3.243,2.507,7.582,1.646,9.668-1.94
		c2.086-3.585,1.146-8.541-2.086-11.048C354.882,393.9,350.543,394.762,348.457,398.357z"/>
</g>
</svg>