<?xml version="1.0" encoding="iso-8859-1"?>
<!-- Uploaded to: SVG Repo, www.svgrepo.com, Generator: SVG Repo Mixer Tools -->
<svg fill="#000000" height="800px" width="800px" version="1.1" id="Layer_1" xmlns="http://www.w3.org/2000/svg" xmlns:xlink="http://www.w3.org/1999/xlink" 
	 viewBox="0 0 512.004 512.004" xml:space="preserve">
<g>
	<g>
		<path d="M503.141,294.781h-74.405v-7.971c0-15.508-12.617-28.125-28.125-28.125s-28.125,12.617-28.125,28.125v7.973h-11.224
			V280.52c0-14.177-11.535-25.712-25.712-25.712h-70.69v-18.206c44.579-4.458,79.505-42.184,79.505-87.918
			c0-48.723-39.64-88.362-88.363-88.362s-88.362,39.639-88.362,88.362c0,45.734,34.924,83.459,79.504,87.918v18.206h-70.689
			c-14.178,0-25.713,11.534-25.713,25.712v14.262h-11.223v-7.973c0-15.508-12.617-28.125-28.125-28.125
			c-15.508,0-28.122,12.617-28.122,28.125v7.971H8.859c-4.893,0-8.859,3.966-8.859,8.859v99.216c0,4.892,3.965,8.859,8.859,8.859
			H83.27v7.967c0,15.508,12.618,28.125,28.126,28.125s28.125-12.617,28.125-28.125v-7.966h11.223v14.254
			c0,14.177,11.535,25.712,25.713,25.712h159.095c14.177,0,25.712-11.534,25.712-25.712v-14.254h11.224v7.966
			c0,15.508,12.617,28.125,28.125,28.125s28.125-12.617,28.125-28.125v-7.967h74.405c4.893,0,8.859-3.966,8.859-8.859V303.64
			C512,298.748,508.035,294.781,503.141,294.781z M83.27,393.997H17.717v-81.499H83.27V393.997z M121.804,419.682
			c0,5.739-4.669,10.408-10.408,10.408c-5.739,0-10.409-4.669-10.409-10.408V286.81c0-5.739,4.669-10.408,10.409-10.408
			c5.738,0,10.408,4.669,10.408,10.408V419.682z M150.744,393.999h-11.223v-81.499h11.223V393.999z M185.36,148.685
			c0-38.954,31.691-70.645,70.645-70.645c38.954,0,70.646,31.691,70.646,70.645c0,38.954-31.691,70.645-70.646,70.645
			C217.051,219.33,185.36,187.639,185.36,148.685z M343.547,425.969h-0.001c0,4.408-3.586,7.995-7.995,7.995H176.457
			c-4.408,0-7.996-3.586-7.996-7.995V280.522c0-4.408,3.587-7.995,7.996-7.995h159.095c4.408,0,7.995,3.586,7.995,7.995V425.969z
			 M372.487,393.999h-11.224v-81.499h11.224V393.999z M411.02,419.682c0,5.739-4.669,10.408-10.408,10.408
			c-5.739,0-10.408-4.669-10.408-10.408V286.81c0-5.739,4.669-10.408,10.408-10.408c5.739,0,10.408,4.669,10.408,10.408V419.682z
			 M494.283,393.997h-65.546v-81.499h65.546V393.997z"/>
	</g>
</g>
<g>
	<g>
		<path d="M307.571,348.144l-33.966-33.964c-3.461-3.46-9.069-3.46-12.528,0s-3.46,9.068,0,12.527l18.843,18.843h-70.349
			c-4.893,0-8.859,3.966-8.859,8.859s3.965,8.859,8.859,8.859h70.349l-18.843,18.842c-3.46,3.46-3.46,9.068,0,12.527
			c1.73,1.73,3.997,2.595,6.265,2.595c2.267,0,4.534-0.865,6.265-2.595l33.965-33.965c1.661-1.661,2.594-3.914,2.594-6.264
			S309.232,349.805,307.571,348.144z"/>
	</g>
</g>
<g>
	<g>
		<path d="M256.004,108.157c-4.893,0-8.859,3.966-8.859,8.859v31.67c0,4.892,3.965,8.859,8.859,8.859
			c4.893,0,8.859-3.966,8.859-8.859v-31.67C264.862,112.123,260.897,108.157,256.004,108.157z"/>
	</g>
</g>
</svg>