<?xml version="1.0" encoding="iso-8859-1"?>
<!-- Uploaded to: SVG Repo, www.svgrepo.com, Generator: SVG Repo Mixer Tools -->
<svg fill="#000000" height="800px" width="800px" version="1.1" id="Layer_1" xmlns="http://www.w3.org/2000/svg" xmlns:xlink="http://www.w3.org/1999/xlink" 
	 viewBox="0 0 512 512" xml:space="preserve">
<g>
	<g>
		<path d="M508.255,370.479c-6.315-19.469-19.835-35.314-38.066-44.615c-11.724-5.981-24.495-8.777-37.292-8.347l-56.996-175.714
			c44.931-2.394,80.751-39.448,80.751-84.966c0-11.755-9.53-21.037-21.286-21.037H21.286C9.53,35.8,0,45.082,0,56.837
			c0,43.338,32.478,78.958,74.366,84.363v184.817c-31.857,9.292-55.209,38.74-55.209,73.557c0,42.251,34.375,76.625,76.625,76.625
			c29.08,0,54.426-16.285,67.404-40.213c12.979,23.928,38.325,40.213,67.404,40.213c42.25,0,76.624-34.375,76.624-76.625
			c0-34.913-23.478-64.424-55.469-73.631V142.228h79.439l61.225,188.606c-27.512,18.649-40.688,53.84-29.93,87.003
			c10.497,32.364,40.619,52.954,72.94,52.954c7.816,0,15.761-1.226,23.587-3.763C499.199,453.99,521.29,410.668,508.255,370.479z
			 M95.782,433.629c-18.777,0-34.054-15.277-34.054-34.054s15.277-34.054,34.054-34.054c18.777,0,34.053,15.277,34.053,34.054
			S114.559,433.629,95.782,433.629z M163.185,363.162c-9.702-17.89-26.327-31.486-46.248-37.219V142.228h92.238v183.79
			C189.368,331.794,172.846,345.351,163.185,363.162z M264.644,399.575c0,18.777-15.276,34.054-34.053,34.054
			s-34.054-15.277-34.054-34.054s15.277-34.054,34.054-34.054S264.644,380.797,264.644,399.575z M85.341,99.656
			c-15.839,0-29.696-8.514-37.088-21.286H408.4c-7.392,12.771-21.249,21.286-37.088,21.286H85.341z M445.874,426.513
			c-8.65,2.808-17.881,2.075-25.983-2.058c-8.103-4.134-14.11-11.175-16.916-19.828c-5.794-17.862,4.023-37.105,21.884-42.899
			c3.46-1.122,7.007-1.68,10.543-1.68c5.306,0,10.576,1.256,15.439,3.738c8.103,4.134,14.111,11.175,16.918,19.828
			C473.554,401.475,463.736,420.719,445.874,426.513z"/>
	</g>
</g>
</svg>