<?xml version="1.0" encoding="utf-8"?>
<!-- Uploaded to: SVG Repo, www.svgrepo.com, Generator: SVG Repo Mixer Tools -->
<svg fill="#000000" width="800px" height="800px" viewBox="-9.5 0 32 32" version="1.1" xmlns="http://www.w3.org/2000/svg">
<title>s</title>
<path d="M10.031 12.031l1.406-1.469c-1.563-1.531-3.156-2.313-4.719-2.313-1.344 0-2.438 0.438-3.344 1.281-0.875 0.875-1.313 1.938-1.313 3.219 0 1 0.281 1.844 0.813 2.656 0.531 0.781 1.625 1.531 3.156 2.344 1.406 0.75 2.344 1.313 2.75 1.781 0.406 0.5 0.594 1.094 0.594 1.719 0 0.75-0.344 1.406-0.938 1.969-0.594 0.531-1.344 0.844-2.219 0.844-1.25 0-2.438-0.656-3.563-1.906l-1.375 1.594c0.563 0.75 1.313 1.344 2.219 1.75s1.813 0.625 2.813 0.625c1.469 0 2.656-0.469 3.656-1.438 1-1 1.5-2.156 1.5-3.531 0-1-0.313-1.875-0.875-2.688-0.563-0.781-1.719-1.594-3.344-2.438-1.344-0.688-2.219-1.313-2.625-1.813s-0.625-1.031-0.625-1.563c0-0.625 0.281-1.188 0.781-1.656 0.5-0.438 1.094-0.688 1.813-0.688 1.125 0 2.281 0.563 3.438 1.719z"></path>
</svg>