<?xml version="1.0" encoding="utf-8"?>

<!DOCTYPE svg PUBLIC "-//W3C//DTD SVG 1.1//EN" "http://www.w3.org/Graphics/SVG/1.1/DTD/svg11.dtd">
<!-- Uploaded to: SVG Repo, www.svgrepo.com, Generator: SVG Repo Mixer Tools -->
<svg height="800px" width="800px" version="1.1" id="_x32_" xmlns="http://www.w3.org/2000/svg" xmlns:xlink="http://www.w3.org/1999/xlink" 
	 viewBox="0 0 512 512"  xml:space="preserve">
<style type="text/css">
	.st0{fill:#000000;}
</style>
<g>
	<path class="st0" d="M428.587,239.276c-46.594-11.246-119.026-57.862-163.523-96.006c-6.126-5.255-11.048-10.412-15.804-15.402
		c-9.026-9.466-17.553-18.409-30.29-23.187c-5.256-1.969-10.799-2.969-16.486-2.969h-0.008c-18.901,0-33.698,11.086-40.816,16.417
		c-18.916,14.161-24.641,29.7-25.747,41.422c-1.817,0.144-3.65,0.227-5.505,0.227c-18.637,0-25.436-7.724-29.632-15.274
		c-10.95-19.719-30.359-31.971-50.646-31.971c-24.914,0-50.13,19.264-50.13,56.09v210.647v31.017h31.018h448.457h31.018v-31.017
		c0-1.416,0.265-4.764,0.499-7.716C513.15,344.278,519.715,261.267,428.587,239.276z M385.446,275.321
		c5.422-4.195,12.162-7.777,20.423-10.473c5.293,1.78,10.481,3.386,15.441,4.582c44.11,10.647,56.438,39.627,59.119,65.896H347.818
		l9.398-0.447l2.06-0.076v-0.022l-0.015-1.038c-0.038-4.339,0.734-21.021,8.602-36.674
		C371.785,289.217,377.351,281.607,385.446,275.321z M376.79,253.149c-1.9,1.242-3.877,2.446-5.611,3.794
		c-8.61,6.686-15.092,14.433-19.999,22.354c-8.943-4.324-17.486-8.595-25.808-12.836l18.766-30.26
		C355.11,242.411,366.082,248.181,376.79,253.149z M330.771,228.341l-19.212,30.987c-8.398-4.384-16.561-8.724-24.27-12.957
		l23.672-30.434C317.489,220.193,324.1,224.32,330.771,228.341z M298.058,207.274l-24.452,31.442
		c-8.012-4.536-15.713-8.973-22.9-13.244l27.55-32.266C284.647,197.922,291.257,202.617,298.058,207.274z M244.55,166.519
		c0.113,0.106,0.212,0.197,0.326,0.296c6.414,5.497,13.554,11.222,20.999,17l-28.624,33.532
		c-9.542-5.854-18.175-11.36-26.004-16.501L244.55,166.519z M180.228,142.975c5.195-3.884,13.661-10.246,22.256-10.246
		c1.87,0,3.741,0.303,5.588,0.992c7.792,2.923,14.653,11.578,25.164,22.188l-35.099,36.174
		c-12.418-8.473-22.157-15.569-29.041-20.794l-1.318-1.015C165.325,163.187,166.256,153.433,180.228,142.975z M31.018,168.624
		c0-16.994,8.92-25.073,19.113-25.073c8.414,0,17.69,5.497,23.536,16.016c13.646,24.573,36.258,31.229,56.742,31.229
		c8.148,0,15.933-1.06,22.71-2.453c24.49,18.78,86.919,63.05,188.361,112.098l-0.507,1.492c-4.521,14.668-4.96,26.988-4.975,31.812
		c0,0.72,0.015,1.211,0.022,1.583H152.694c-4.218-16.758-14.032-33.334-28.867-47.079c-20.203-18.682-49.994-31.828-87.327-31.79
		c-1.802,0-3.65,0.091-5.482,0.151C31.018,214.634,31.018,176.226,31.018,168.624z M31.018,279.873
		c1.84-0.068,3.688-0.151,5.482-0.151c31.912,0.038,55.598,10.95,71.554,25.626c9.897,9.08,16.66,19.712,20.378,29.98H31.018
		C31.018,318.97,31.018,299.584,31.018,279.873z M479.475,379.271H31.018c0,0,0-7.959,0-20.681H480.8
		C480.338,367.268,479.475,374.576,479.475,379.271z"/>
</g>
</svg>