<?xml version="1.0" encoding="utf-8"?><!-- Uploaded to: SVG Repo, www.svgrepo.com, Generator: SVG Repo Mixer Tools -->
<svg width="800px" height="800px" viewBox="0 0 16 16" xmlns="http://www.w3.org/2000/svg">
  <path fill="#000000" fill-rule="evenodd" d="M10.2361,6 C10.7111,5.46924 11,4.76835 11,4 C11,2.34315 9.65685,1 8,1 C6.34315,1 5,2.34315 5,4 C5,4.76835 5.28885,5.46924 5.76389,6 L3.00003,6 L1.26411,12.4827 C0.923988,13.7528 1.88112,15 3.19604,15 L12.8013,15 C14.1159,15 15.073,13.7534 14.7334,12.4834 L13,6 L10.2361,6 Z M9,4 C9,4.55228 8.55228,5 8,5 C7.44772,5 7,4.55228 7,4 C7,3.44772 7.44772,3 8,3 C8.55228,3 9,3.44772 9,4 Z M3.19604,13 L4.53493,8 L11.4645,8 L12.8013,13 L3.19604,13 Z"/>
</svg>